<?xml version="1.0" encoding="utf-8"?>
<!-- Generator: Adobe Illustrator 16.0.3, SVG Export Plug-In . SVG Version: 6.00 Build 0)  -->
<!DOCTYPE svg PUBLIC "-//W3C//DTD SVG 1.1//EN" "http://www.w3.org/Graphics/SVG/1.1/DTD/svg11.dtd">
<svg version="1.1" id="レイヤー_1" xmlns="http://www.w3.org/2000/svg" xmlns:xlink="http://www.w3.org/1999/xlink" x="0px"
	 y="0px" width="361.372px" height="69.013px" viewBox="0 0 361.372 69.013" enable-background="new 0 0 361.372 69.013"
	 xml:space="preserve">
<g>
	<path fill="#FF6D59" d="M104.528,29.965c8.169-2.203,18.38-4.46,22.572-4.46c7.739,0,13.329,4.084,13.221,12.953
		c-0.107,10.103-7.793,17.144-22.949,21.497c-0.699-1.344-2.311-3.439-3.547-4.677c13.973-3.385,20.583-9.673,20.583-16.552
		c0-4.784-2.204-8.063-7.631-8.063c-4.407,0-12.254,1.827-19.025,4.354c0.054,0.482-0.537,1.074-1.128,1.343L104.528,29.965z
		 M112.697,11.477c7.417,0.538,15.801,1.989,21.39,3.924l-1.451,5.321c-5.697-1.935-14.457-3.601-21.282-4.085L112.697,11.477z"/>
	<path fill="#FF6D59" d="M171.92,49.529c0-1.56-0.592-2.474-1.881-2.474c-2.042,0-5.052,1.021-7.525,3.386
		c-2.364,2.312-7.147,7.04-8.652,8.761c0,0-0.699-0.914-3.278-3.439c4.623-4.515,16.392-15.37,21.497-20.047
		c-2.794,0.214-12.146,0.753-16.66,1.021c-0.162,0.377-0.323,0.591-0.699,0.646l-0.376-4.999c5.589-0.162,17.896-0.699,21.981-1.022
		l0.752-0.43l3.493,3.333c-0.215,0.215-0.591,0.322-1.075,0.322c-2.741,2.257-7.417,6.342-11.017,9.675v0.053
		c1.397-0.644,2.687-0.914,3.923-0.914c2.419,0,3.87,1.882,3.87,4.354c0,1.344-0.108,3.01-0.108,3.924
		c0,3.494,1.773,3.494,4.622,3.494c1.988,0,4.675-0.107,6.503-0.484c-0.054,1.45-0.107,3.171,0,4.408
		c-1.88,0.214-4.354,0.268-6.45,0.268c-1.397,0-2.687,0-3.601-0.108c-3.762-0.43-5.32-2.739-5.374-5.535L171.92,49.529z
		 M177.67,27.922c-4.407-1.344-12.2-2.472-17.682-2.794l0.968-4.138c5.857,0.323,13.005,1.29,17.842,2.633L177.67,27.922z"/>
	<path fill="#FF6D59" d="M197.551,17.711c5.911-0.269,12.146-1.182,14.995-2.042c1.773-0.537,2.794-1.129,3.815-1.935l3.976,3.709
		c-5.158,3.332-13.865,14.511-13.865,25.045c0.055,7.685,5.213,10.963,11.824,10.963c12.308,0,12.308-9.137,12.308-12.897
		c0-6.182-0.7-13.975-3.387-19.67L232,18.41c3.332,7.309,9.836,12.683,14.511,14.35l-2.097,5.266
		c-4.03-1.45-8.329-5.374-9.996-8.544h-0.052c0.966,4.299,1.289,8.76,1.289,12.416v1.45c-0.162,9.137-6.072,15.316-17.359,15.316
		c-10.319,0-17.037-5.536-17.037-15.962c0-6.772,3.655-15.8,9.082-21.927c-2.633,0.86-6.556,1.612-11.123,1.988
		c-0.109,0.431-0.484,0.807-0.969,0.807L197.551,17.711z M237.535,20.56c-1.344-2.311-4.083-5.428-6.608-7.471l2.525-1.989
		c2.739,2.15,5.427,4.999,6.824,7.417L237.535,20.56z M245.222,18.41c-1.505-2.365-4.138-5.267-6.611-7.31l2.474-2.042
		c2.739,2.149,5.374,4.836,6.824,7.309L245.222,18.41z"/>
	<path fill="#FF6D59" d="M276.188,11.961c-0.162,0.538-0.7,0.967-1.614,1.075c-0.32,2.096-0.859,4.783-1.289,6.61
		c4.515-0.269,10.212-1.182,14.511-2.526l0.698,5.106c-4.836,1.129-10.48,1.988-16.176,2.418
		c-2.527,10.05-5.912,18.381-10.803,26.066l-5.268-1.935c4.677-6.879,8.33-14.942,10.374-24.024c-1.13,0.053-2.526,0.053-3.71,0.053
		h-6.286v-4.89h6.179c1.667,0,3.333,0,4.73-0.054c0.537-2.633,0.967-5.643,1.29-8.599L276.188,11.961z M290.214,35.177
		c0.055,3.763,0.269,6.772,0.537,10.159c3.171,1.289,7.74,3.547,10.964,5.804l-2.58,4.945c-2.472-1.936-5.911-3.924-8.384-5.106
		c0,2.956-1.183,8.868-10.48,8.868c-5.856-0.055-10.64-2.849-10.587-8.277c0.054-5.429,5.535-8.329,10.695-8.329
		c1.612,0,3.278,0.269,5.106,0.698c-0.216-3.011-0.377-6.072-0.377-8.169L290.214,35.177z M285.806,48.722
		c-1.825-0.753-3.922-1.076-5.535-1.076c-2.901,0-5.966,1.237-5.966,3.924c0,2.472,2.474,3.815,6.074,3.815
		c3.01,0,5.427-1.344,5.427-4.675V48.722z M301.178,30.502c-5.912,0.053-13.114,0.914-18.812,2.364l-0.805-4.675
		c6.127-1.613,13.436-2.741,19.347-2.741L301.178,30.502z"/>
	<path fill="#FF6D59" d="M311.015,17.711c5.911-0.269,12.146-1.182,14.995-2.042c1.773-0.537,2.794-1.129,3.814-1.935l3.977,3.709
		c-5.158,3.332-13.865,14.511-13.865,25.045c0.055,7.685,5.213,10.963,11.823,10.963c12.309,0,12.309-9.137,12.309-12.897
		c0-6.182-0.7-13.975-3.388-19.67l4.783-2.473c3.333,7.309,9.837,12.683,14.511,14.35l-2.096,5.266
		c-4.03-1.45-8.33-5.374-9.996-8.544h-0.053c0.967,4.299,1.289,8.76,1.289,12.416v1.45c-0.161,9.137-6.072,15.316-17.359,15.316
		c-10.318,0-17.036-5.536-17.036-15.962c0-6.772,3.655-15.8,9.082-21.927c-2.633,0.86-6.557,1.612-11.124,1.988
		c-0.108,0.431-0.483,0.807-0.968,0.807L311.015,17.711z M350.999,20.56c-1.344-2.311-4.083-5.428-6.609-7.471l2.526-1.989
		c2.739,2.15,5.427,4.999,6.824,7.417L350.999,20.56z M358.685,18.41c-1.505-2.365-4.138-5.267-6.61-7.31l2.473-2.042
		c2.74,2.149,5.375,4.836,6.825,7.309L358.685,18.41z"/>
</g>
<g>
	<linearGradient id="SVGID_1_" gradientUnits="userSpaceOnUse" x1="8.9951" y1="53.1694" x2="82.9834" y2="10.4523">
		<stop  offset="0" style="stop-color:#FFD854"/>
		<stop  offset="1" style="stop-color:#FF90A6"/>
	</linearGradient>
	<path fill="url(#SVGID_1_)" d="M40.486,69.013l-27.15-8.326L0,17.019l0.671-1.188c0.255-0.17,0.543-0.298,0.864-0.382
		c0.319-0.086,0.671-0.128,1.055-0.128l20.147,6.032l3.837-13.168c0.319-0.17,0.607-0.298,0.864-0.383
		c0.255-0.085,0.576-0.127,0.959-0.127l20.435,5.946L52.67,0.452c0.255-0.112,0.528-0.225,0.815-0.339
		C53.773,0,54.109-0.028,54.493,0.028l27.15,8.24c0.255,0.284,0.432,0.566,0.528,0.85c0.096,0.284,0.111,0.652,0.048,1.104
		L68.691,60.857c-0.321,0.17-0.624,0.313-0.911,0.424c-0.288,0.115-0.624,0.17-1.007,0.17l-20.339-5.945
		c-0.64,2.209-1.232,4.445-1.775,6.711c-0.544,2.264-1.295,4.445-2.254,6.541c-0.256,0.17-0.544,0.256-0.864,0.256
		C41.22,69.013,40.87,69.013,40.486,69.013z M37.8,64v-0.254L26.191,26.534L5.469,20.417v0.17l11.608,37.295L37.8,64z
		 M41.062,58.732v-0.254l10.361-39.844l-21.586-6.457l-2.782,10.449c0.447,0.115,0.926,0.228,1.439,0.34
		c0.511,0.115,0.959,0.34,1.343,0.68L40.87,58.818L41.062,58.732z M63.799,56.355v-0.17l-9.498-30.5l-6.907,25.913L63.799,56.355z
		 M66.965,51.001v-0.254l10.457-39.675L55.644,4.616l-2.59,10.364c0.447,0.114,0.895,0.228,1.343,0.34
		c0.447,0.114,0.863,0.284,1.247,0.51l11.225,35.257L66.965,51.001z"/>
</g>
</svg>
