<?xml version="1.0" encoding="utf-8"?>
<!-- Generator: Adobe Illustrator 16.0.3, SVG Export Plug-In . SVG Version: 6.00 Build 0)  -->
<!DOCTYPE svg PUBLIC "-//W3C//DTD SVG 1.1//EN" "http://www.w3.org/Graphics/SVG/1.1/DTD/svg11.dtd">
<svg version="1.1" id="レイヤー_1" xmlns="http://www.w3.org/2000/svg" xmlns:xlink="http://www.w3.org/1999/xlink" x="0px"
	 y="0px" width="442.304px" height="96.083px" viewBox="0 0 442.304 96.083" enable-background="new 0 0 442.304 96.083"
	 xml:space="preserve">
<g>
	<g opacity="0.7">
		<path fill="#48B0E5" d="M8.384,1.071c-2.897-2.912,96.56,0.751,93.663,3.451c2.897-2.7-2.781,93.644-5.348,90.732
			c2.566,2.912-87.366-2.582-84.694-5.177C9.333,92.671,5.487-1.841,8.384,1.071z"/>
	</g>
	<path opacity="0.7" fill="#F1969C" d="M0,9.929c1.067-0.178,105.097-3.378,105.097-3.378l1.244,87.135L4.332,87.095L0,9.929z"/>
	<g opacity="0.9">
		<path fill="#FFE156" d="M4.361,6.551c-5.166-4.624,103.318,2.285,98.152,6.251c5.166-3.966-4.17,77.444-8.447,73.655
			c4.277,3.789-81.24,12.565-77.373,7.941C12.826,99.022-0.804,1.927,4.361,6.551z"/>
	</g>
	<g>
		<path fill="#FFFFFF" d="M48.654,51.106l-2.223,4.188c-2.034,3.754-3.899,6.806-5.592,9.155c-1.694,2.349-3.267,4.011-4.719,4.984
			c-1.452,0.975-2.989,1.46-4.615,1.46c-1.66,0-3.112-0.633-4.356-1.902c-2.419-2.534-4.441-7.339-6.066-14.418
			c-1.28-5.718-1.918-10.647-1.918-14.789c0-3.245,0.414-5.834,1.243-7.767c0.829-1.931,2.125-3.353,3.885-4.266
			c1.762-0.91,4.059-1.367,6.889-1.367c1.485,0,2.564,0.231,3.238,0.694c0.673,0.464,1.131,1.392,1.374,2.783
			c0.241,1.391,0.362,3.493,0.362,6.306c0,5.132,0.282,9.968,0.845,14.512c0.07,0.247,0.246,1.482,0.528,3.708h0.26
			c0.24-0.463,0.431-0.836,0.568-1.112c0.139-0.278,0.277-0.557,0.415-0.834c0.137-0.28,0.267-0.535,0.388-0.766
			c0.121-0.231,0.285-0.564,0.493-0.996c1.83-3.709,3.746-7.975,5.749-12.797c2.314-5.533,3.903-8.903,4.765-10.107
			c0.242-0.278,0.571-0.587,0.984-0.927c1.657-1.082,4.021-1.623,7.095-1.623c1.622,0,2.831,0.271,3.624,0.811
			c0.793,0.542,1.337,1.445,1.631,2.713c0.293,1.268,0.475,3.354,0.544,6.259c0,2.319,0.302,5.558,0.907,9.715
			c0.606,4.155,1.271,7.856,1.997,11.103c0.242,1.112,0.761,3.228,1.555,6.35h0.259c0.754-2.038,1.268-3.629,1.542-4.775
			c0.992-3.924,1.49-9.58,1.49-16.969v-2.085c0-2.195,0.224-3.949,0.671-5.263c0.449-1.313,1.245-2.511,2.383-3.592
			c1.208-1.082,2.608-1.97,4.198-2.667c1.586-0.695,2.985-1.043,4.194-1.043c1.417,0,2.425,0.503,3.03,1.507
			c0.604,1.004,0.908,2.635,0.908,4.892c0,5.069-1.174,11.39-3.523,18.961c-2.034,6.46-4.709,12.411-8.022,17.85
			c-1.07,1.7-2.105,3.091-3.106,4.174c-1.001,1.08-2.037,1.848-3.106,2.295c-1.07,0.448-2.296,0.672-3.675,0.672
			c-4.901,0-8.923-2.813-12.063-8.438c-0.933-1.729-1.762-3.695-2.486-5.896c-0.727-2.199-1.349-4.742-1.867-7.625
			c-0.173-0.496-0.311-1.516-0.416-3.067H48.654z"/>
	</g>
</g>
<g>
	<path fill="#F8C292" d="M167.999,47.839c0,10.713-5.474,21.002-16.421,30.868l-8.209-5.23c9.951-9.069,14.927-17.664,14.927-25.787
		c0-4.533-2.902-6.801-8.707-6.801c-4.092,0-8.985,0.922-14.679,2.765l-3.317-8.146c4.588-1.245,8.845-2.118,12.771-2.616
		l-3.897-3.438l10.2-4.783l-12.356-2.392l1.907-8.147l22.392,4.036l1.244,6.652l-15.674,7.699h2.322
		c5.528,0,9.828,1.308,12.896,3.924S167.999,42.857,167.999,47.839z"/>
	<path fill="#F8C292" d="M224.16,70.635l-2.073,7.923c-3.317,0.1-5.198,0.148-5.639,0.148c-3.705-0.1-6.373-0.81-8.003-2.129
		c-1.632-1.319-2.447-3.624-2.447-6.914v-6.801l-3.317,0.672c-2.046,4.386-3.622,9.119-4.727,14.202l-8.625-2.467
		c3.261-10.464,8.154-19.583,14.679-27.356l-11.859,0.972l-0.581-7.773l8.044-0.523l-2.737-2.317l6.884-2.765l-7.381-1.496
		l1.907-7.474l16.337,3.214l1.245,6.427l-10.118,4.111l10.367-0.748l1.824,7.101c-3.98,2.242-7.38,5.133-10.2,8.67
		c0.718-0.15,1.188-0.225,1.41-0.225c3.704,0,5.557,1.645,5.557,4.934v9.342c0,1.097,0.69,1.62,2.073,1.569L224.16,70.635z"/>
	<path fill="#F8C292" d="M296.695,35.657l-3.979,8.371c-3.373-1.245-6.551-2.715-9.539-4.41c1.384,6.827,2.075,13.031,2.075,18.61
		c0,6.03-1.301,10.788-3.897,14.275c-3.041,4.137-7.741,6.203-14.099,6.203c-5.694,0-10.063-1.744-13.104-5.23
		c-2.817-3.239-4.229-7.474-4.229-12.707c0-4.383,1.052-9.89,3.153-16.518c2.709-8.619,4.256-14.025,4.645-16.219
		c-3.54,1.446-7.908,2.568-13.104,3.363l-2.737-8.371c8.13-0.996,14.623-2.665,19.49-5.007l6.8,3.588
		c-0.72,5.182-2.406,12.307-5.06,21.375c-2.211,7.524-3.316,13.13-3.316,16.817c0,6.775,2.708,10.164,8.127,10.164
		c5.031,0,7.548-4.137,7.548-12.407c0-6.527-0.941-15.421-2.82-26.682l6.137-3.438c1.989,1.097,3.815,2.068,5.474,2.915
		l-2.321-9.043l6.964-1.719l2.738,10.539l-5.142,1.345C290.088,33.215,293.489,34.61,296.695,35.657z M300.76,28.033l-6.968,1.645
		L291.14,18.99l6.882-1.57L300.76,28.033z"/>
	<path fill="#F8C292" d="M345.139,31.77c-3.041,0.597-6.635,1.046-10.782,1.345c-2.153,9.268-4.781,17.291-7.877,24.066
		l-9.206-3.438c3.318-6.775,5.86-13.577,7.63-20.404c-2.321,0-4.562-0.074-6.717-0.224l-0.333-8.446
		c3.263,0.2,6.191,0.325,8.793,0.374c0.496-3.188,0.965-6.626,1.408-10.313l9.205,1.121c-0.386,3.289-0.828,6.204-1.327,8.745
		c2.432-0.199,4.811-0.547,7.132-1.046L345.139,31.77z M365.704,36.254l-2.236,7.922l-8.708-1.644v15.845l7.877,2.989l-3.316,8.896
		l-4.811-2.616c-0.498,3.437-2.089,6.141-4.768,8.108c-2.684,1.968-5.958,2.952-9.827,2.952c-4.479,0-8.102-1.097-10.865-3.289
		c-2.766-2.191-4.146-5.279-4.146-9.268c0-3.587,1.52-6.427,4.562-8.521c2.764-1.893,6.19-2.84,10.283-2.84
		c1.437,0,3.316,0.176,5.641,0.523V37.375l5.389-3.737L365.704,36.254z M345.305,64.43c-1.991-0.796-3.759-1.195-5.307-1.195
		c-3.484,0-5.225,1.321-5.225,3.962c0,2.094,1.684,3.139,5.057,3.139c1.716,0,3.07-0.622,4.064-1.868
		C344.779,67.373,345.249,66.026,345.305,64.43z"/>
	<path fill="#F8C292" d="M438.24,35.657l-3.981,8.371c-3.373-1.245-6.551-2.715-9.536-4.41c1.382,6.827,2.073,13.031,2.073,18.61
		c0,6.03-1.3,10.788-3.897,14.275c-3.041,4.137-7.741,6.203-14.099,6.203c-5.695,0-10.063-1.744-13.104-5.23
		c-2.819-3.239-4.229-7.474-4.229-12.707c0-4.383,1.05-9.89,3.151-16.518c2.709-8.619,4.257-14.025,4.645-16.219
		c-3.539,1.446-7.907,2.568-13.104,3.363l-2.737-8.371c8.128-0.996,14.624-2.665,19.489-5.007l6.8,3.588
		c-0.719,5.182-2.404,12.307-5.059,21.375c-2.212,7.524-3.316,13.13-3.316,16.817c0,6.775,2.707,10.164,8.127,10.164
		c5.03,0,7.547-4.137,7.547-12.407c0-6.527-0.94-15.421-2.82-26.682l6.137-3.438c1.99,1.097,3.815,2.068,5.474,2.915l-2.321-9.043
		l6.966-1.719l2.737,10.539l-5.143,1.345C431.633,33.215,435.033,34.61,438.24,35.657z M442.304,28.033l-6.966,1.645l-2.653-10.688
		l6.882-1.57L442.304,28.033z"/>
</g>
</svg>
