<?xml version="1.0" encoding="utf-8"?>
<!-- Generator: Adobe Illustrator 16.0.3, SVG Export Plug-In . SVG Version: 6.00 Build 0)  -->
<!DOCTYPE svg PUBLIC "-//W3C//DTD SVG 1.1//EN" "http://www.w3.org/Graphics/SVG/1.1/DTD/svg11.dtd">
<svg version="1.1" id="レイヤー_1" xmlns="http://www.w3.org/2000/svg" xmlns:xlink="http://www.w3.org/1999/xlink" x="0px"
	 y="0px" width="82.256px" height="82.25px" viewBox="0 0 82.256 82.25" enable-background="new 0 0 82.256 82.25"
	 xml:space="preserve">
<path opacity="0.4" fill="#FFFFFF" d="M49.036,74.057L34.009,25.97c-0.261-0.836-1.036-1.406-1.912-1.406H2.042
	c-0.637,0-1.236,0.304-1.614,0.817C0.05,25.895-0.06,26.556,0.13,27.165l15.027,48.086c0.262,0.837,1.036,1.406,1.913,1.406h30.054
	c0.637,0,1.236-0.302,1.614-0.817C49.116,75.327,49.227,74.664,49.036,74.057z"/>
<path opacity="0.6" fill="#FFFFFF" d="M57.663,16.249c-0.379-0.445-0.937-0.701-1.523-0.701H26.086c-0.987,0-1.825,0.717-1.979,1.69
	l-9.016,57.104c-0.092,0.578,0.076,1.168,0.456,1.612c0.381,0.446,0.936,0.703,1.523,0.703h30.054c0.986,0,1.826-0.716,1.979-1.689
	l9.016-57.104C58.211,17.284,58.045,16.694,57.663,16.249z"/>
<path opacity="0.8" fill="#FFFFFF" d="M73.079,65.039L58.054,16.954c-0.262-0.837-1.037-1.406-1.914-1.406H26.086
	c-0.638,0-1.237,0.304-1.614,0.816c-0.378,0.514-0.489,1.177-0.298,1.785L39.2,66.234c0.262,0.836,1.037,1.406,1.914,1.406h30.053
	c0.639,0,1.237-0.301,1.614-0.817C73.159,66.312,73.271,65.648,73.079,65.039z"/>
<path fill="#FFFFFF" d="M81.707,7.232c-0.381-0.444-0.937-0.701-1.523-0.701H50.13c-0.986,0-1.826,0.717-1.979,1.69l-9.017,57.104
	c-0.091,0.577,0.075,1.168,0.456,1.614c0.381,0.444,0.938,0.701,1.524,0.701h30.053c0.986,0,1.825-0.716,1.979-1.689l9.017-57.104
	C82.254,8.269,82.087,7.679,81.707,7.232z"/>
</svg>
