<?xml version="1.0" encoding="utf-8"?>
<!-- Generator: Adobe Illustrator 16.0.3, SVG Export Plug-In . SVG Version: 6.00 Build 0)  -->
<!DOCTYPE svg PUBLIC "-//W3C//DTD SVG 1.1//EN" "http://www.w3.org/Graphics/SVG/1.1/DTD/svg11.dtd">
<svg version="1.1" id="レイヤー_1" xmlns="http://www.w3.org/2000/svg" xmlns:xlink="http://www.w3.org/1999/xlink" x="0px"
	 y="0px" width="82.256px" height="82.25px" viewBox="0 0 82.256 82.25" enable-background="new 0 0 82.256 82.25"
	 xml:space="preserve">
<g>
	<path fill="#FFFFFF" d="M40.486,75.632l-27.15-8.326L0,23.637l0.671-1.188c0.255-0.17,0.543-0.298,0.864-0.382
		c0.319-0.086,0.671-0.128,1.055-0.128l20.147,6.032l3.837-13.168c0.319-0.17,0.607-0.298,0.864-0.383
		c0.255-0.085,0.576-0.127,0.959-0.127l20.434,5.946L52.669,7.07c0.255-0.112,0.527-0.225,0.815-0.339
		c0.288-0.113,0.624-0.142,1.007-0.085l27.15,8.24c0.256,0.284,0.432,0.566,0.528,0.85c0.096,0.284,0.11,0.652,0.048,1.104
		L68.691,67.476c-0.32,0.17-0.623,0.313-0.911,0.424c-0.288,0.115-0.624,0.17-1.007,0.17l-20.34-5.945
		c-0.64,2.209-1.232,4.445-1.774,6.711c-0.544,2.264-1.296,4.445-2.255,6.541c-0.256,0.17-0.544,0.256-0.863,0.256
		C41.22,75.632,40.87,75.632,40.486,75.632z M37.8,70.619v-0.254L26.191,33.152L5.469,27.035v0.17l11.608,37.296L37.8,70.619z
		 M41.061,65.351v-0.254l10.361-39.845l-21.585-6.457l-2.782,10.449c0.447,0.115,0.926,0.228,1.439,0.34
		c0.511,0.115,0.959,0.34,1.343,0.68L40.87,65.437L41.061,65.351z M63.798,62.974v-0.17L54.3,32.303l-6.907,25.914L63.798,62.974z
		 M66.964,57.621v-0.254L77.421,17.69l-21.777-6.456l-2.591,10.364c0.446,0.114,0.896,0.228,1.343,0.34
		c0.447,0.114,0.863,0.284,1.248,0.51l11.225,35.258L66.964,57.621z"/>
</g>
</svg>
