<?xml version="1.0" encoding="utf-8"?>
<!-- Generator: Adobe Illustrator 16.0.3, SVG Export Plug-In . SVG Version: 6.00 Build 0)  -->
<!DOCTYPE svg PUBLIC "-//W3C//DTD SVG 1.1//EN" "http://www.w3.org/Graphics/SVG/1.1/DTD/svg11.dtd">
<svg version="1.1" id="レイヤー_1" xmlns="http://www.w3.org/2000/svg" xmlns:xlink="http://www.w3.org/1999/xlink" x="0px"
	 y="0px" width="500px" height="500px" viewBox="0 0 500 500" enable-background="new 0 0 500 500" xml:space="preserve">
<path fill="#FFFFFF" d="M490.957,61.165c0,0-3.98,0.123-11.195,0.345c-0.6-7.451-1.561-11.044-2.943-9.755
	C490.254,39.235,28.963,22.244,42.4,35.754c-1.938-1.948-3.224,5.514-3.97,19.651c-12.113,1.131-17.768,3.002-14.686,5.76
	c-3.256-2.913-4.898,2.895-5.268,15.027c-9.147,0.336-14.465,0.56-14.961,0.643l20.09,357.905l31.248,2.019
	c1.482,8.79,2.949,13.168,4.346,11.813c-1.465,1.42,3.068,3.027,12.171,4.736c3.812,12.317,7.115,18.233,9.569,15.3
	c-7.839,9.371,63.494,6.873,144.644-0.376c110.063,7.418,232.97,11.764,226.432,4.344c1.248,1.416,2.655-2.244,4.158-9.891
	l40.558,2.62L490.957,61.165z M391.51,267.984c-9.438,29.966-21.842,57.561-37.214,82.789c-4.96,7.885-9.762,14.338-14.402,19.354
	c-4.644,5.018-9.445,8.566-14.405,10.652c-4.965,2.072-10.649,3.109-17.048,3.109c-22.733,0-41.386-13.041-55.952-39.131
	c-4.323-8.023-8.167-17.143-11.529-27.351c-3.371-10.201-6.253-21.989-8.657-35.366c-0.803-2.298-1.445-7.033-1.926-14.225h-1.201
	l-10.31,19.427c-9.434,17.413-18.08,31.563-25.938,42.458c-7.856,10.9-15.152,18.605-21.887,23.117
	c-6.732,4.521-13.864,6.772-21.402,6.772c-7.697,0-14.432-2.934-20.203-8.819c-11.223-11.75-20.604-34.037-28.14-66.871
	c-5.935-26.521-8.897-49.384-8.897-68.594c0-15.051,1.92-27.059,5.766-36.022c3.845-8.955,9.851-15.551,18.017-19.781
	c8.171-4.226,18.823-6.342,31.954-6.342c6.885,0,11.892,1.076,15.016,3.223c3.125,2.15,5.246,6.452,6.368,12.904
	c1.119,6.45,1.682,16.2,1.682,29.248c0,23.797,1.309,46.228,3.918,67.304c0.325,1.149,1.143,6.881,2.448,17.201h1.203
	c1.115-2.148,2-3.876,2.641-5.16c0.641-1.289,1.281-2.582,1.922-3.871c0.638-1.289,1.239-2.476,1.803-3.549
	c0.56-1.072,1.322-2.613,2.281-4.621c8.489-17.203,17.377-36.985,26.667-59.35c10.73-25.66,18.101-41.291,22.101-46.879
	c1.119-1.286,2.646-2.723,4.564-4.299c7.685-5.016,18.652-7.526,32.907-7.526c7.521,0,13.127,1.259,16.806,3.762
	c3.681,2.51,6.203,6.702,7.562,12.583c1.359,5.883,2.204,15.555,2.526,29.026c0,10.759,1.401,25.775,4.208,45.058
	c2.81,19.273,5.897,36.445,9.263,51.497c1.122,5.156,3.531,14.976,7.211,29.453h1.204c3.495-9.453,5.878-16.838,7.152-22.147
	c4.599-18.201,6.907-44.434,6.907-78.703v-9.674c0-10.178,1.041-18.311,3.118-24.407c2.082-6.094,5.773-11.647,11.053-16.664
	c5.604-5.019,12.097-9.14,19.467-12.368c7.359-3.225,13.847-4.835,19.458-4.835c6.564,0,11.245,2.33,14.053,6.986
	c2.804,4.659,4.209,12.223,4.209,22.687C407.85,203.551,402.402,232.868,391.51,267.984z"/>
</svg>
